<svg xmlns="http://www.w3.org/2000/svg" viewBox="0 0 500 500">
    <ellipse style="stroke: rgb(255, 0, 0); stroke-linecap: round; stroke-linejoin: round; fill: rgba(0, 0, 0, 0); stroke-width: 4.5px;" cx="188.896" cy="129.401" rx="5.4" ry="5.4" transform="matrix(1, 0, 0, 1, 1.4210854715202004e-14, 0)"/>
    <ellipse style="stroke: rgb(255, 0, 0); stroke-linecap: round; stroke-linejoin: round; fill: rgba(0, 0, 0, 0); stroke-width: 3.5px;" cx="193.413" cy="153.84" rx="3.3" ry="3.3" transform="matrix(1, 0, 0, 1, 1.4210854715202004e-14, 0)"/>
    <ellipse style="stroke: rgb(255, 0, 0); stroke-linecap: round; stroke-linejoin: round; fill: rgba(0, 0, 0, 0); stroke-width: 3px;" cx="295.991" cy="147.196" rx="2.5" ry="2.5" transform="matrix(1, 0, 0, 1, 1.4210854715202004e-14, 0)"/>
    <ellipse style="stroke: rgb(255, 0, 0); stroke-linecap: round; stroke-linejoin: round; fill: rgba(0, 0, 0, 0); stroke-width: 3.5;" cx="232.547" cy="200.625" rx="3.5" ry="3.5" transform="matrix(1, 0, 0, 1, 1.4210854715202004e-14, 0)"/>
    <ellipse style="stroke: rgb(255, 0, 0); stroke-linecap: round; stroke-linejoin: round; fill: rgba(0, 0, 0, 0); stroke-width: 3.5;" cx="256.801" cy="232.374" rx="3.5" ry="3.5" transform="matrix(1, 0, 0, 1, 1.4210854715202004e-14, 0)"/>
    <ellipse style="stroke: rgb(255, 0, 0); stroke-linecap: round; stroke-linejoin: round; fill: rgba(0, 0, 0, 0); stroke-width: 3.5;" cx="311.834" cy="138.832" rx="3.5" ry="3.5" transform="matrix(1, 0, 0, 1, 1.4210854715202004e-14, 0)"/>
    <ellipse style="stroke: rgb(255, 0, 0); stroke-linecap: round; stroke-linejoin: round; fill: rgba(0, 0, 0, 0); stroke-width: 4.5px;" cx="306.524" cy="163.741" rx="5.4" ry="5.4" transform="matrix(1, 0, 0, 1, 1.4210854715202004e-14, 0)"/>
    <ellipse style="stroke: rgb(255, 0, 0); stroke-linecap: round; stroke-linejoin: round; fill: rgba(0, 0, 0, 0); stroke-width: 3;" cx="255.646" cy="261.016" rx="2.7" ry="2.7" transform="matrix(1, 0, 0, 1, 1.4210854715202004e-14, 0)"/>
</svg>
