<svg xmlns="http://www.w3.org/2000/svg" viewBox="0 0 500 500">
    <path style="fill: none; stroke: rgb(255, 127, 0); stroke-width: 12px; stroke-linejoin: round; stroke-linecap: round;" d="M 109.819 86.738 L 392.461 87.03 C 392.461 87.03 282.238 259.827 277.079 267.18 C 271.92 274.533 262.795 288.685 262.398 304.438 C 261.291 348.373 260.534 428.518 260.993 435.062 C 261.452 441.606 268.863 452.688 280.037 461.279 C 291.211 469.87 333.035 478.313 327.951 478.745 C 322.225 479.231 178.852 478.727 173.863 478.469 C 168.874 478.211 214.896 464.268 224.679 459.01 C 236.209 452.196 239.33 441.733 239.377 434.912 C 239.424 428.091 239.169 347.431 239.628 304.36 C 239.784 289.666 226.151 265.502 226.151 265.502 C 226.151 265.502 110.058 86.823 109.819 86.738 Z"/>
</svg>
