<svg xmlns="http://www.w3.org/2000/svg" viewBox="0 0 500 500" xmlns:bx="https://boxy-svg.com">
<defs>
 <path id="seg" style="fill: none; stroke: rgb(255, 255, 255); stroke-width: 12px;" d="M 222.811 238.787 C 214.968 242.373 98.664 241.091 68.604 238.739 C 55.903 237.745 49.665 225.048 50.1 215.504 C 51.148 192.488 69.834 147.695 85.212 133.711 C 91.904 127.624 103.98 123.232 113.245 130.444 C 130.51 143.884 219.079 229.769 222.811 238.787 Z"></path>
 <linearGradient id="gradient-1">
  <stop style="stop-color: rgb(255, 138, 11);" offset="0.398"></stop>
  <stop style="stop-color: rgb(229, 6, 67);" offset="1"></stop>
 </linearGradient>
 <linearGradient id="gradient-1-0" href="#gradient-1" gradientUnits="userSpaceOnUse" x1="249.566" y1="-0.82" x2="249.566" y2="501.071"></linearGradient>
 <linearGradient gradientUnits="userSpaceOnUse" x1="279.844" y1="99.081" x2="279.844" y2="491.286" id="gradient-0" gradientTransform="matrix(0.999993, -0.00386, 0.001869, 0.484287, -0.916342, 254.442827)">
  <stop offset="0" style="stop-color: rgba(255, 255, 255, 0.55)"></stop>
  <stop offset="1" style="stop-color: rgb(56.687% 56.687% 56.687% / 0.55)"></stop>
 </linearGradient>
</defs>
<rect x="0" y="0" width="500" height="500" style="stroke: none; fill-rule: evenodd; paint-order: fill; fill: url(#gradient-1-0); pointer-events: none;">
</rect>
<path style="stroke-width: 5px; stroke-linecap: round; stroke-linejoin: round; stroke: rgb(255, 255, 255); fill: rgba(255, 255, 255, 0.655);" d="M 306.822 130.428 L 368.178 39.795 C 372.287 33.353 372.94 32.491 381.412 32.136 L 451.908 33.285 C 451.908 33.285 452.534 45.905 451.659 45.905 C 450.784 45.905 380.188 45.271 380.188 45.271 L 321.498 132.206"></path>
<g>
 <ellipse style="stroke-linecap: round; stroke-linejoin: round; fill: rgba(0, 0, 0, 0); stroke-width: 4.5px; stroke: rgb(255, 255, 255);" cx="213.423" cy="132.674" rx="5.4" ry="5.4"></ellipse>
 <ellipse style="stroke-linecap: round; stroke-linejoin: round; fill: rgba(0, 0, 0, 0); stroke-width: 3.5px; stroke: rgb(255, 255, 255);" cx="217.94" cy="157.113" rx="3.3" ry="3.3"></ellipse>
 <ellipse style="stroke-linecap: round; stroke-linejoin: round; fill: rgba(0, 0, 0, 0); stroke-width: 3px; stroke: rgb(255, 255, 255);" cx="320.518" cy="150.469" rx="2.5" ry="2.5"></ellipse>
 <ellipse style="stroke-linecap: round; stroke-linejoin: round; fill: rgba(0, 0, 0, 0); stroke-width: 3.5; stroke: rgb(255, 255, 255);" cx="257.074" cy="203.898" rx="3.5" ry="3.5"></ellipse>
 <ellipse style="stroke-linecap: round; stroke-linejoin: round; fill: rgba(0, 0, 0, 0); stroke-width: 3.5; stroke: rgb(255, 255, 255);" cx="281.328" cy="235.647" rx="3.5" ry="3.5"></ellipse>
 <ellipse style="stroke-linecap: round; stroke-linejoin: round; fill: rgba(0, 0, 0, 0); stroke-width: 3.5; stroke: rgb(255, 255, 255);" cx="336.361" cy="142.105" rx="3.5" ry="3.5"></ellipse>
 <ellipse style="stroke-linecap: round; stroke-linejoin: round; fill: rgba(0, 0, 0, 0); stroke-width: 4.5px; stroke: rgb(255, 255, 255);" cx="331.051" cy="167.014" rx="5.4" ry="5.4"></ellipse>
 <ellipse style="stroke-linecap: round; stroke-linejoin: round; fill: rgba(0, 0, 0, 0); stroke-width: 3; stroke: rgb(255, 255, 255);" cx="280.173" cy="264.289" rx="2.7" ry="2.7"></ellipse>
</g>
<g>
 <path style="fill: none; stroke-width: 3.992; stroke: rgb(255, 255, 255);" d="M 127.731 94.594 C 125.122 95.787 86.428 95.36 76.427 94.578 C 72.201 94.247 70.126 90.023 70.27 86.848 C 70.619 79.19 76.836 64.287 81.952 59.635 C 84.179 57.61 88.196 56.149 91.279 58.548 C 97.023 63.02 126.49 91.594 127.731 94.594 Z">
 </path>
 <path style="fill: none; stroke-width: 3.992; transform-box: fill-box; transform-origin: 50% 50%; stroke: rgb(255, 255, 255);" d="M 154.302 74.237 C 151.692 75.43 112.998 75.003 102.997 74.221 C 98.772 73.89 96.696 69.666 96.841 66.491 C 97.19 58.833 103.406 43.931 108.523 39.278 C 110.749 37.253 114.767 35.792 117.849 38.191 C 123.593 42.663 153.06 71.237 154.302 74.237 Z" transform="matrix(0.707107, 0.707107, -0.707107, 0.707107, 0, 0)">
 </path>
 <path style="fill: none; stroke-width: 3.992; transform-box: fill-box; transform-origin: 50% 50%; stroke: rgb(255, 255, 255);" d="M 187.485 78.631 C 184.875 79.824 146.181 79.397 136.18 78.615 C 131.954 78.284 129.879 74.06 130.024 70.884 C 130.372 63.227 136.589 48.324 141.705 43.672 C 143.932 41.647 147.95 40.185 151.032 42.585 C 156.776 47.056 186.243 75.63 187.485 78.631 Z" transform="matrix(0, 1, -1, 0, 0, 0)">
 </path>
 <path style="fill: none; stroke-width: 3.992; transform-box: fill-box; transform-origin: 50% 50%; stroke: rgb(255, 255, 255);" d="M 207.842 105.201 C 205.232 106.394 166.538 105.968 156.537 105.185 C 152.311 104.855 150.236 100.63 150.381 97.455 C 150.729 89.798 156.946 74.895 162.062 70.242 C 164.289 68.217 168.306 66.756 171.389 69.156 C 177.133 73.627 206.6 102.201 207.842 105.201 Z" transform="matrix(-0.707107, 0.707107, -0.707107, -0.707107, 0, 0)">
 </path>
 <path style="fill: none; stroke-width: 3.992; transform-box: fill-box; transform-origin: 50% 50%; stroke: rgb(255, 255, 255);" d="M 176.877 158.741 C 174.268 159.934 135.573 159.508 125.573 158.725 C 121.347 158.394 119.271 154.17 119.416 150.995 C 119.765 143.337 125.982 128.435 131.098 123.782 C 133.324 121.757 137.342 120.296 140.425 122.695 C 146.169 127.167 175.636 155.741 176.877 158.741 Z" transform="matrix(-0.707107, -0.707107, 0.707107, -0.707107, 0, 0)">
 </path>
 <path style="fill: none; stroke-width: 3.992; transform-box: fill-box; transform-origin: 50% 50%; stroke: rgb(255, 255, 255);" d="M 143.695 154.347 C 141.085 155.54 102.391 155.114 92.39 154.331 C 88.164 154.001 86.089 149.776 86.234 146.601 C 86.582 138.944 92.799 124.041 97.915 119.389 C 100.142 117.363 104.16 115.902 107.242 118.302 C 112.986 122.773 142.453 151.347 143.695 154.347 Z" transform="matrix(0, -1, 1, 0, 0, 0)">
 </path>
 <path style="fill: none; stroke-width: 3.992; transform-box: fill-box; transform-origin: 50% 50%; stroke: rgb(255, 255, 255);" d="M 123.338 127.777 C 120.728 128.97 82.034 128.543 72.033 127.761 C 67.807 127.43 65.732 123.206 65.876 120.03 C 66.225 112.373 72.442 97.47 77.558 92.818 C 79.785 90.793 83.802 89.331 86.885 91.731 C 92.629 96.202 122.096 124.776 123.338 127.777 Z" transform="matrix(0.707107, -0.707107, 0.707107, 0.707107, 0, 0)">
 </path>
</g>
<path style="stroke-linecap: round; stroke-linejoin: round; stroke-width: 2px; stroke: rgb(255, 255, 255); fill: rgba(255, 255, 255, 0.796);" d="M 168.003 126.993 L 263.438 273.639 C 272.97 287.848 287.888 287.803 298.874 273.38 L 393.919 124.134 C 394.238 126.421 370.434 131.855 340.823 133.675 C 311.212 135.495 266.305 119.67 221.809 118.313 C 192.827 117.429 168.04 124.064 168.003 126.993 Z">
</path>
<path style="stroke-linejoin: round; stroke-linecap: round; stroke: rgba(255, 255, 255, 0.808); paint-order: fill; stroke-width: 5px; fill: url(#gradient-0);" d="M 138.523 99.081 L 421.165 99.371 C 421.165 99.371 310.942 272.165 305.783 279.518 C 300.624 286.871 291.499 301.023 291.102 316.776 C 289.995 360.711 289.238 440.856 289.697 447.4 C 290.156 453.944 297.567 465.026 308.741 473.617 C 319.915 482.208 361.739 490.651 356.655 491.083 C 350.929 491.569 207.556 491.065 202.567 490.807 C 197.578 490.549 243.6 476.606 253.383 471.348 C 264.913 464.534 268.034 454.071 268.081 447.25 C 268.128 440.429 267.873 359.769 268.332 316.698 C 268.488 302.004 254.855 277.84 254.855 277.84 C 254.855 277.84 138.762 99.161 138.523 99.081 Z">
</path>
<g transform="matrix(0.923949, 0, 0, 0.923949, 23.18117, 14.732633)">
 <ellipse style="paint-order: fill; fill-rule: nonzero; stroke: rgb(0, 0, 0); fill: rgba(255, 255, 255, 0.694); stroke-width: 21.646216px;" cx="123.031" cy="88.19" rx="86.585" ry="86.342">
 </ellipse>
 <g>
  <ellipse style="stroke-linecap: round; stroke-linejoin: round; fill: rgba(0, 0, 0, 0); stroke: rgb(0, 0, 0); stroke-width: 16.234662px;" cx="244.645" cy="155.361" rx="18" ry="18">
  </ellipse>
  <ellipse style="stroke-linecap: round; stroke-linejoin: round; fill: rgba(0, 0, 0, 0); stroke: rgb(0, 0, 0); stroke-width: 16.234662px;" cx="306.203" cy="211.155" rx="18" ry="18">
  </ellipse>
  <path style="fill: none; stroke-linecap: round; stroke-linejoin: round; stroke: rgb(0, 0, 0); stroke-width: 16.234662px;" d="M 242.265 233.528 L 308.826 136.12"></path>
 </g>
</g>
</svg>
